<svg width="30" height="30" viewBox="0 0 30 30" fill="none" xmlns="http://www.w3.org/2000/svg">
<g clip-path="url(#clip0_286_4303)">
<path fill-rule="evenodd" clip-rule="evenodd" d="M24.1076 21.9324C26.4249 19.6071 27.8574 16.3994 27.8574 12.8571C27.8574 5.75634 22.101 0 15.0002 0C7.8994 0 2.14307 5.75634 2.14307 12.8571C2.14307 16.3994 3.57555 19.6071 5.89281 21.9324V27.8574C5.89281 29.0409 6.85219 30.0002 8.03567 30.0002C9.21912 30.0002 10.1785 29.0409 10.1785 27.8574V25.8943H12.8574V27.8574C12.8574 29.0409 13.8168 30.0002 15.0002 30.0002C16.1837 30.0002 17.1431 29.0409 17.1431 27.8574V25.8943H19.8219V27.8574C19.8219 29.0409 20.7813 30.0002 21.9647 30.0002C23.1482 30.0002 24.1076 29.0409 24.1076 27.8574V21.9324ZM10.1785 18.3942C11.6578 18.3942 12.8571 17.195 12.8571 15.7157C12.8571 14.2363 11.6578 13.0371 10.1785 13.0371C8.69918 13.0371 7.49995 14.2363 7.49995 15.7157C7.49995 17.195 8.69918 18.3942 10.1785 18.3942ZM22.5004 15.7157C22.5004 17.195 21.3012 18.3942 19.8219 18.3942C18.3426 18.3942 17.1433 17.195 17.1433 15.7157C17.1433 14.2363 18.3426 13.0371 19.8219 13.0371C21.3012 13.0371 22.5004 14.2363 22.5004 15.7157Z" fill="black"/>
</g>
<defs>
<clipPath id="clip0_286_4303">
<rect width="30" height="30" fill="white"/>
</clipPath>
</defs>
</svg>
