<svg width="30" height="30" viewBox="0 0 30 30" fill="none" xmlns="http://www.w3.org/2000/svg">
<g clip-path="url(#clip0_286_4306)">
<path fill-rule="evenodd" clip-rule="evenodd" d="M18.2142 1.07139C18.2142 0.60207 17.9088 0.187379 17.4606 0.0481743C17.0124 -0.0910306 16.5258 0.0776553 16.2599 0.464391L4.47417 17.6072C4.24876 17.9351 4.2236 18.3609 4.40883 18.713C4.59406 19.0652 4.95918 19.2857 5.35707 19.2857H11.7856V28.9286C11.7856 29.3979 12.0911 29.8125 12.5393 29.9518C12.9875 30.0909 13.4741 29.9222 13.74 29.5354L25.5256 12.3927C25.7511 12.0648 25.7764 11.639 25.591 11.2869C25.4059 10.9347 25.0407 10.7143 24.6428 10.7143H18.2142V1.07139Z" fill="black"/>
</g>
<defs>
<clipPath id="clip0_286_4306">
<rect width="30" height="30" fill="white"/>
</clipPath>
</defs>
</svg>
